<?xml version="1.0" encoding="UTF-8"?>
<!DOCTYPE svg PUBLIC "-//W3C//DTD SVG 1.1//EN" "http://www.w3.org/Graphics/SVG/1.1/DTD/svg11.dtd">
<svg xmlns="http://www.w3.org/2000/svg" version="1.1" width="131px" height="188px" style="shape-rendering:geometricPrecision; text-rendering:geometricPrecision; image-rendering:optimizeQuality; fill-rule:evenodd; clip-rule:evenodd" xmlns:xlink="http://www.w3.org/1999/xlink">
<g><path style="opacity:0.901" fill="#fefefe" d="M 11.5,-0.5 C 44.5,-0.5 77.5,-0.5 110.5,-0.5C 116.511,4.03005 120.345,10.0301 122,17.5C 122.98,31.6539 122.647,45.6539 121,59.5C 116.973,55.473 112.973,51.473 109,47.5C 108.667,37.8333 108.333,28.1667 108,18.5C 107.5,17.3333 106.667,16.5 105.5,16C 75.1246,15.1747 44.7913,15.3414 14.5,16.5C 13.7492,17.376 13.2492,18.376 13,19.5C 12.3333,68.8333 12.3333,118.167 13,167.5C 13.4652,168.931 14.2986,170.097 15.5,171C 45.5,171.667 75.5,171.667 105.5,171C 106.701,170.097 107.535,168.931 108,167.5C 108.333,158.167 108.667,148.833 109,139.5C 113.009,135.457 117.009,131.457 121,127.5C 121.667,142.5 121.667,157.5 121,172.5C 120.667,173.833 120.333,175.167 120,176.5C 116.946,180.379 113.779,184.045 110.5,187.5C 77.1667,187.5 43.8333,187.5 10.5,187.5C 6.48738,183.485 2.82071,179.152 -0.5,174.5C -0.5,120.833 -0.5,67.1667 -0.5,13.5C 2.43825,7.89717 6.43825,3.23051 11.5,-0.5 Z"/></g>
<g><path style="opacity:0.95" fill="#fefefe" d="M 130.5,91.5 C 130.5,92.8333 130.5,94.1667 130.5,95.5C 129.761,95.369 129.094,95.5357 128.5,96C 114.21,110.825 99.8767,125.658 85.5,140.5C 82.7719,141.94 80.6052,141.274 79,138.5C 78.9683,130.335 78.3016,122.335 77,114.5C 64.5756,115.655 52.0756,115.821 39.5,115C 38.3333,113.833 37.1667,112.667 36,111.5C 35.3333,99.1667 35.3333,86.8333 36,74.5C 36.8333,73.6667 37.6667,72.8333 38.5,72C 51.8292,71.5001 65.1625,71.3334 78.5,71.5C 78.3336,63.8261 78.5003,56.1594 79,48.5C 80.3051,45.6936 82.4718,44.8603 85.5,46C 99.9517,61.6189 114.952,76.7856 130.5,91.5 Z"/></g>
</svg>
